<svg width="56" height="56" viewBox="0 0 56 56" fill="none" xmlns="http://www.w3.org/2000/svg">
<path d="M52.1733 19.2966L51.4967 12.8333C50.5167 5.78663 47.32 2.91663 40.4833 2.91663H34.9767H31.5233H24.43H20.9767H15.3767C8.51667 2.91663 5.34334 5.78663 4.34001 12.9033L3.71001 19.32C3.47667 21.8166 4.15334 24.2433 5.62334 26.1333C7.39667 28.4433 10.1267 29.75 13.16 29.75C16.1 29.75 18.9233 28.28 20.6967 25.9233C22.2833 28.28 24.99 29.75 28 29.75C31.01 29.75 33.6467 28.35 35.2567 26.0166C37.0533 28.3266 39.83 29.75 42.7233 29.75C45.8267 29.75 48.6267 28.3733 50.3767 25.9466C51.7767 24.08 52.4067 21.7233 52.1733 19.2966Z" fill="#EC6626"/>
<path d="M26.4833 38.8734C23.52 39.1767 21.28 41.6967 21.28 44.6834V51.0767C21.28 51.7067 21.7933 52.22 22.4233 52.22H33.5533C34.1833 52.22 34.6967 51.7067 34.6967 51.0767V45.5C34.72 40.6234 31.85 38.3134 26.4833 38.8734Z" fill="#EC6626"/>
<path d="M49.8633 33.5999V40.5533C49.8633 46.9933 44.6367 52.2199 38.1967 52.2199C37.5667 52.2199 37.0533 51.7066 37.0533 51.0766V45.4999C37.0533 42.5133 36.1433 40.1799 34.37 38.5933C32.8067 37.1699 30.6833 36.4699 28.0467 36.4699C27.4633 36.4699 26.88 36.4933 26.25 36.5633C22.0967 36.9833 18.9467 40.4833 18.9467 44.6833V51.0766C18.9467 51.7066 18.4333 52.2199 17.8033 52.2199C11.3633 52.2199 6.13666 46.9933 6.13666 40.5533V33.6466C6.13666 32.0133 7.74666 30.9166 9.26332 31.4533C9.89332 31.6633 10.5233 31.8266 11.1767 31.9199C11.4567 31.9666 11.76 32.0133 12.04 32.0133C12.4133 32.0599 12.7867 32.0833 13.16 32.0833C15.8667 32.0833 18.5267 31.0799 20.6267 29.3533C22.6333 31.0799 25.2467 32.0833 28 32.0833C30.7767 32.0833 33.3433 31.1266 35.35 29.3999C37.45 31.1033 40.0633 32.0833 42.7233 32.0833C43.1433 32.0833 43.5633 32.0599 43.96 32.0133C44.24 31.9899 44.4967 31.9666 44.7533 31.9199C45.4767 31.8266 46.13 31.6166 46.7833 31.4066C48.3 30.8933 49.8633 32.0133 49.8633 33.5999Z" fill="#EC6626"/>
</svg>
