<svg width="56" height="56" viewBox="0 0 56 56" fill="none" xmlns="http://www.w3.org/2000/svg">
<path d="M19.3433 14.6767C18.3633 14.6767 17.5933 13.8834 17.5933 12.9267V6.41669C17.5933 5.46002 18.3633 4.66669 19.3433 4.66669C20.3233 4.66669 21.0933 5.46002 21.0933 6.41669V12.9034C21.0933 13.8834 20.3233 14.6767 19.3433 14.6767Z" fill="#EC6626"/>
<path d="M36.6567 14.6767C35.6767 14.6767 34.9067 13.8834 34.9067 12.9267V6.41669C34.9067 5.43669 35.7 4.66669 36.6567 4.66669C37.6367 4.66669 38.4067 5.46002 38.4067 6.41669V12.9034C38.4067 13.8834 37.6367 14.6767 36.6567 14.6767Z" fill="#EC6626"/>
<path d="M45.6633 10.5C44.1233 9.35669 41.9067 10.4534 41.9067 12.39V12.6234C41.9067 15.3534 39.9467 17.8734 37.2167 18.1534C34.0667 18.48 31.4067 16.0067 31.4067 12.9267V10.5C31.4067 9.21669 30.3567 8.16669 29.0733 8.16669H26.9267C25.6433 8.16669 24.5933 9.21669 24.5933 10.5V12.9267C24.5933 14.77 23.6367 16.4034 22.19 17.3134C21.98 17.4534 21.7467 17.57 21.5133 17.6867C21.3033 17.8034 21.07 17.8967 20.8133 17.9667C20.5333 18.06 20.23 18.13 19.9033 18.1534C19.53 18.2 19.1567 18.2 18.7833 18.1534C18.4567 18.13 18.1533 18.06 17.8733 17.9667C17.64 17.8967 17.4067 17.8034 17.1733 17.6867C16.94 17.57 16.7067 17.4534 16.4967 17.3134C15.0267 16.2867 14.0933 14.5134 14.0933 12.6234V12.39C14.0933 10.5934 12.18 9.52002 10.6633 10.29C10.64 10.3134 10.6167 10.3134 10.5933 10.3367C10.5 10.3834 10.43 10.43 10.3367 10.5C10.2667 10.57 10.1733 10.6167 10.1033 10.6867C9.45001 11.2 8.86668 11.7834 8.37668 12.4134C8.12001 12.6934 7.91001 12.9967 7.72334 13.3C7.70001 13.3234 7.67668 13.3467 7.65334 13.3934C7.44334 13.6967 7.25668 14.0467 7.09334 14.3734C7.04668 14.42 7.02334 14.4434 7.02334 14.49C6.88334 14.77 6.74334 15.05 6.65001 15.3534C6.58001 15.47 6.55668 15.5634 6.51001 15.68C6.37001 16.03 6.27668 16.38 6.18334 16.73C6.09001 17.0567 6.02001 17.4067 5.97334 17.7567C5.92668 18.0134 5.90334 18.27 5.88001 18.55C5.85668 18.8767 5.83334 19.2034 5.83334 19.53V39.97C5.83334 46.2467 10.92 51.3334 17.1967 51.3334H38.8033C45.08 51.3334 50.1667 46.2467 50.1667 39.97V19.53C50.1667 15.82 48.3933 12.5767 45.6633 10.5ZM28 40.6467H17.1733C16.2167 40.6467 15.4233 39.8534 15.4233 38.8967C15.4233 37.9167 16.2167 37.1234 17.1733 37.1234H28C28.98 37.1234 29.75 37.9167 29.75 38.8967C29.75 39.8534 28.98 40.6467 28 40.6467ZM34.4867 31.99H17.1733C16.2167 31.99 15.4233 31.1967 15.4233 30.24C15.4233 29.26 16.2167 28.4667 17.1733 28.4667H34.4867C35.4667 28.4667 36.26 29.26 36.26 30.24C36.26 31.1967 35.4667 31.99 34.4867 31.99Z" fill="#EC6626"/>
</svg>
