<svg width="15" height="15" viewBox="0 0 15 15" fill="none" xmlns="http://www.w3.org/2000/svg">
<path d="M7.49984 0.416748C3.59692 0.416748 0.416504 3.59716 0.416504 7.50008C0.416504 11.403 3.59692 14.5834 7.49984 14.5834C11.4028 14.5834 14.5832 11.403 14.5832 7.50008C14.5832 3.59716 11.4028 0.416748 7.49984 0.416748ZM9.87984 9.12925C10.0853 9.33467 10.0853 9.67467 9.87984 9.88008C9.77359 9.98633 9.639 10.0359 9.50442 10.0359C9.36984 10.0359 9.23525 9.98633 9.129 9.88008L7.49984 8.25092L5.87067 9.88008C5.76442 9.98633 5.62984 10.0359 5.49525 10.0359C5.36067 10.0359 5.22609 9.98633 5.11984 9.88008C4.91442 9.67467 4.91442 9.33467 5.11984 9.12925L6.749 7.50008L5.11984 5.87091C4.91442 5.6655 4.91442 5.3255 5.11984 5.12008C5.32525 4.91467 5.66525 4.91467 5.87067 5.12008L7.49984 6.74925L9.129 5.12008C9.33442 4.91467 9.67442 4.91467 9.87984 5.12008C10.0853 5.3255 10.0853 5.6655 9.87984 5.87091L8.25067 7.50008L9.87984 9.12925Z" fill="#616161"/>
</svg>
