<svg width="56" height="56" viewBox="0 0 56 56" fill="none" xmlns="http://www.w3.org/2000/svg">
<path d="M37.3333 4.66663H18.6667C10.5 4.66663 7 9.33329 7 16.3333V39.6666C7 46.6666 10.5 51.3333 18.6667 51.3333H37.3333C45.5 51.3333 49 46.6666 49 39.6666V16.3333C49 9.33329 45.5 4.66663 37.3333 4.66663ZM18.6667 28.5833H28C28.9567 28.5833 29.75 29.3766 29.75 30.3333C29.75 31.29 28.9567 32.0833 28 32.0833H18.6667C17.71 32.0833 16.9167 31.29 16.9167 30.3333C16.9167 29.3766 17.71 28.5833 18.6667 28.5833ZM37.3333 41.4166H18.6667C17.71 41.4166 16.9167 40.6233 16.9167 39.6666C16.9167 38.71 17.71 37.9166 18.6667 37.9166H37.3333C38.29 37.9166 39.0833 38.71 39.0833 39.6666C39.0833 40.6233 38.29 41.4166 37.3333 41.4166ZM43.1667 21.5833H38.5C34.9533 21.5833 32.0833 18.7133 32.0833 15.1666V10.5C32.0833 9.54329 32.8767 8.74996 33.8333 8.74996C34.79 8.74996 35.5833 9.54329 35.5833 10.5V15.1666C35.5833 16.7766 36.89 18.0833 38.5 18.0833H43.1667C44.1233 18.0833 44.9167 18.8766 44.9167 19.8333C44.9167 20.79 44.1233 21.5833 43.1667 21.5833Z" fill="#EC6626"/>
</svg>
