<svg width="20" height="20" viewBox="0 0 20 20" fill="none" xmlns="http://www.w3.org/2000/svg">
<path d="M17.5584 4.35835C16.2167 4.22502 14.875 4.12502 13.525 4.05002V4.04169L13.3417 2.95835C13.2167 2.19169 13.0334 1.04169 11.0834 1.04169H8.90005C6.95838 1.04169 6.77505 2.14169 6.64172 2.95002L6.46672 4.01669C5.69172 4.06669 4.91672 4.11669 4.14172 4.19169L2.44172 4.35835C2.09172 4.39169 1.84172 4.70002 1.87505 5.04169C1.90838 5.38335 2.20838 5.63335 2.55838 5.60002L4.25838 5.43335C8.62505 5.00002 13.0251 5.16669 17.4417 5.60835C17.4667 5.60835 17.4834 5.60835 17.5084 5.60835C17.8251 5.60835 18.1 5.36669 18.1334 5.04169C18.1584 4.70002 17.9084 4.39169 17.5584 4.35835Z" fill="white"/>
<path d="M16.0254 6.78331C15.8254 6.57498 15.5504 6.45831 15.2671 6.45831H4.73378C4.45044 6.45831 4.16711 6.57498 3.97544 6.78331C3.78378 6.99165 3.67544 7.27498 3.69211 7.56665L4.20878 16.1166C4.30044 17.3833 4.41711 18.9666 7.32544 18.9666H12.6754C15.5838 18.9666 15.7004 17.3916 15.7921 16.1166L16.3088 7.57498C16.3254 7.27498 16.2171 6.99165 16.0254 6.78331ZM11.3838 14.7916H8.60878C8.26711 14.7916 7.98378 14.5083 7.98378 14.1666C7.98378 13.825 8.26711 13.5416 8.60878 13.5416H11.3838C11.7254 13.5416 12.0088 13.825 12.0088 14.1666C12.0088 14.5083 11.7254 14.7916 11.3838 14.7916ZM12.0838 11.4583H7.91711C7.57544 11.4583 7.29211 11.175 7.29211 10.8333C7.29211 10.4916 7.57544 10.2083 7.91711 10.2083H12.0838C12.4254 10.2083 12.7088 10.4916 12.7088 10.8333C12.7088 11.175 12.4254 11.4583 12.0838 11.4583Z" fill="white"/>
</svg>
