<svg width="20" height="20" viewBox="0 0 20 20" fill="none" xmlns="http://www.w3.org/2000/svg">
<path d="M13.492 1.66669H6.50866C3.47533 1.66669 1.66699 3.47502 1.66699 6.50835V13.4834C1.66699 16.525 3.47533 18.3334 6.50866 18.3334H13.4837C16.517 18.3334 18.3253 16.525 18.3253 13.4917V6.50835C18.3337 3.47502 16.5253 1.66669 13.492 1.66669ZM9.12533 14.5917C8.88366 14.8334 8.42533 15.0667 8.09199 15.1167L6.04199 15.4084C5.96699 15.4167 5.89199 15.425 5.81699 15.425C5.47533 15.425 5.15866 15.3084 4.93366 15.0834C4.65866 14.8084 4.54199 14.4084 4.60866 13.9667L4.90033 11.9167C4.95033 11.575 5.17533 11.125 5.42533 10.8834L9.14199 7.16669C9.20866 7.34169 9.27533 7.51669 9.36699 7.71669C9.45033 7.89169 9.54199 8.07502 9.64199 8.24169C9.72532 8.38335 9.81699 8.51669 9.89199 8.61669C9.98366 8.75835 10.092 8.89169 10.1587 8.96669C10.2003 9.02502 10.2337 9.06669 10.2503 9.08335C10.4587 9.33335 10.7003 9.56669 10.9087 9.74169C10.967 9.80002 11.0003 9.83335 11.017 9.84169C11.142 9.94169 11.267 10.0417 11.3753 10.1167C11.5087 10.2167 11.642 10.3084 11.7837 10.3834C11.9503 10.4834 12.1337 10.575 12.317 10.6667C12.5087 10.75 12.6837 10.825 12.8587 10.8834L9.12533 14.5917ZM14.4753 9.24169L13.7087 10.0167C13.6587 10.0667 13.592 10.0917 13.5253 10.0917C13.5003 10.0917 13.467 10.0917 13.4503 10.0834C11.7587 9.60002 10.4087 8.25002 9.92533 6.55835C9.90032 6.46669 9.92533 6.36669 9.99199 6.30835L10.767 5.53335C12.0337 4.26669 13.242 4.29169 14.4837 5.53335C15.117 6.16669 15.4253 6.77502 15.4253 7.40835C15.417 8.00835 15.1087 8.60835 14.4753 9.24169Z" fill="white"/>
</svg>
