<svg width="38" height="22" viewBox="0 0 38 22" fill="none" xmlns="http://www.w3.org/2000/svg">
<path d="M2.39995 7.8499C1.98574 7.8499 1.64995 8.18569 1.64995 8.5999C1.64995 9.01411 1.98574 9.3499 2.39995 9.3499V7.8499ZM19.2 9.3499C19.6142 9.3499 19.95 9.01411 19.95 8.5999C19.95 8.18569 19.6142 7.8499 19.2 7.8499V9.3499ZM2.50073 13.2498C2.08652 13.2498 1.75073 13.5856 1.75073 13.9998C1.75073 14.414 2.08652 14.7498 2.50073 14.7498V13.2498ZM19.3007 14.7498C19.7149 14.7498 20.0507 14.414 20.0507 13.9998C20.0507 13.5856 19.7149 13.2498 19.3007 13.2498V14.7498ZM19.6499 10.9999C19.6499 15.8876 15.6877 19.8499 10.7999 19.8499V21.3499C16.5161 21.3499 21.1499 16.716 21.1499 10.9999H19.6499ZM10.7999 19.8499C5.91223 19.8499 1.94995 15.8876 1.94995 10.9999H0.449951C0.449951 16.716 5.0838 21.3499 10.7999 21.3499V19.8499ZM1.94995 10.9999C1.94995 6.11218 5.91223 2.1499 10.7999 2.1499V0.649902C5.0838 0.649902 0.449951 5.28375 0.449951 10.9999H1.94995ZM10.7999 2.1499C15.6877 2.1499 19.6499 6.11218 19.6499 10.9999H21.1499C21.1499 5.28375 16.5161 0.649902 10.7999 0.649902V2.1499ZM10.7999 19.8499C10.4682 19.8499 10.093 19.6994 9.68642 19.3063C9.27619 18.9097 8.8725 18.2996 8.51722 17.4875C7.80762 15.8656 7.34995 13.5724 7.34995 10.9999H5.84995C5.84995 13.7293 6.33248 16.2362 7.14298 18.0887C7.54775 19.0139 8.04908 19.8097 8.64382 20.3847C9.24217 20.9632 9.9719 21.3499 10.7999 21.3499V19.8499ZM7.34995 10.9999C7.34995 8.42736 7.80762 6.13422 8.51722 4.51229C8.8725 3.70021 9.27619 3.09012 9.68642 2.69353C10.093 2.30043 10.4682 2.1499 10.7999 2.1499V0.649902C9.9719 0.649902 9.24217 1.03664 8.64382 1.61511C8.04908 2.19008 7.54775 2.98588 7.14298 3.91106C6.33248 5.76365 5.84995 8.27051 5.84995 10.9999H7.34995ZM10.7999 21.3499C11.628 21.3499 12.3577 20.9632 12.9561 20.3847C13.5508 19.8097 14.0521 19.0139 14.4569 18.0887C15.2674 16.2362 15.7499 13.7293 15.7499 10.9999H14.2499C14.2499 13.5724 13.7923 15.8656 13.0827 17.4875C12.7274 18.2996 12.3237 18.9097 11.9135 19.3063C11.5069 19.6994 11.1317 19.8499 10.7999 19.8499V21.3499ZM15.7499 10.9999C15.7499 8.27051 15.2674 5.76365 14.4569 3.91106C14.0521 2.98588 13.5508 2.19008 12.9561 1.61511C12.3577 1.03664 11.628 0.649902 10.7999 0.649902V2.1499C11.1317 2.1499 11.5069 2.30043 11.9135 2.69353C12.3237 3.09012 12.7274 3.70021 13.0827 4.51229C13.7923 6.13422 14.2499 8.42736 14.2499 10.9999H15.7499ZM2.39995 9.3499H19.2V7.8499H2.39995V9.3499ZM2.50073 14.7498H19.3007V13.2498H2.50073V14.7498Z" fill="#454546"/>
<path opacity="0.37" d="M34.5159 12.5661L37.113 10.0316C37.4955 9.6583 37.4955 9.05313 37.113 8.67986C36.7305 8.30658 36.1104 8.30658 35.7279 8.67986L33.265 11.0883C33.0627 11.2609 32.7457 11.2853 32.5452 11.0883L30.0719 8.67987C29.6894 8.3066 29.0693 8.3066 28.6868 8.67987C28.3043 9.05314 28.3043 9.65831 28.6868 10.0316L31.2839 12.566C32.3959 13.6512 33.3496 13.7042 34.5159 12.5661Z" fill="#454546"/>
</svg>
