<svg width="56" height="56" viewBox="0 0 56 56" fill="none" xmlns="http://www.w3.org/2000/svg">
<path d="M39.6667 4.66663H16.3333C9.89332 4.66663 4.66666 9.86996 4.66666 16.2866V30.24V32.5733C4.66666 38.99 9.89332 44.1933 16.3333 44.1933H19.8333C20.4633 44.1933 21.3033 44.6133 21.7 45.1266L25.2 49.77C26.74 51.8233 29.26 51.8233 30.8 49.77L34.3 45.1266C34.7433 44.5433 35.4433 44.1933 36.1667 44.1933H39.6667C46.1067 44.1933 51.3333 38.99 51.3333 32.5733V16.2866C51.3333 9.86996 46.1067 4.66663 39.6667 4.66663ZM30.3333 32.0833H16.3333C15.3767 32.0833 14.5833 31.29 14.5833 30.3333C14.5833 29.3766 15.3767 28.5833 16.3333 28.5833H30.3333C31.29 28.5833 32.0833 29.3766 32.0833 30.3333C32.0833 31.29 31.29 32.0833 30.3333 32.0833ZM39.6667 20.4166H16.3333C15.3767 20.4166 14.5833 19.6233 14.5833 18.6666C14.5833 17.71 15.3767 16.9166 16.3333 16.9166H39.6667C40.6233 16.9166 41.4167 17.71 41.4167 18.6666C41.4167 19.6233 40.6233 20.4166 39.6667 20.4166Z" fill="#EC6626"/>
</svg>
