<svg width="56" height="56" viewBox="0 0 56 56" fill="none" xmlns="http://www.w3.org/2000/svg">
<path d="M45.1267 33.81L42.7933 29.9366C42.3033 29.0733 41.86 27.44 41.86 26.4833V20.58C41.86 15.0966 38.64 10.36 33.9967 8.14329C32.7833 5.99663 30.5433 4.66663 27.9767 4.66663C25.4333 4.66663 23.1467 6.04329 21.9333 8.21329C17.3833 10.4766 14.2333 15.1666 14.2333 20.58V26.4833C14.2333 27.44 13.79 29.0733 13.3 29.9133L10.9433 33.81C10.01 35.3733 9.8 37.1 10.3833 38.6866C10.9433 40.25 12.2733 41.4633 14 42.0466C18.5267 43.5866 23.2867 44.3333 28.0467 44.3333C32.8067 44.3333 37.5667 43.5866 42.0933 42.07C43.7267 41.5333 44.9867 40.2966 45.5933 38.6866C46.2 37.0766 46.0367 35.3033 45.1267 33.81Z" fill="#EC6626"/>
<path d="M34.6033 46.69C33.6233 49.3966 31.0333 51.3333 28 51.3333C26.1567 51.3333 24.3367 50.5866 23.0533 49.2566C22.3067 48.5566 21.7467 47.6233 21.42 46.6666C21.7233 46.7133 22.0267 46.7366 22.3533 46.7833C22.89 46.8533 23.45 46.9233 24.01 46.97C25.34 47.0866 26.6933 47.1566 28.0467 47.1566C29.3767 47.1566 30.7067 47.0866 32.0133 46.97C32.5033 46.9233 32.9933 46.9 33.46 46.83C33.8333 46.7833 34.2067 46.7366 34.6033 46.69Z" fill="#EC6626"/>
</svg>
