<svg width="56" height="56" viewBox="0 0 56 56" fill="none" xmlns="http://www.w3.org/2000/svg">
<path d="M37.9166 52.5C40.1718 52.5 42 50.6718 42 48.4166C42 46.1615 40.1718 44.3333 37.9166 44.3333C35.6615 44.3333 33.8333 46.1615 33.8333 48.4166C33.8333 50.6718 35.6615 52.5 37.9166 52.5Z" fill="#EC6626"/>
<path d="M19.25 52.5C21.5052 52.5 23.3334 50.6718 23.3334 48.4166C23.3334 46.1615 21.5052 44.3333 19.25 44.3333C16.9949 44.3333 15.1667 46.1615 15.1667 48.4166C15.1667 50.6718 16.9949 52.5 19.25 52.5Z" fill="#EC6626"/>
<path d="M11.2934 9.19335L10.8267 14.91C10.7334 16.0067 11.5967 16.9167 12.6934 16.9167H48.4167C49.3967 16.9167 50.2133 16.17 50.2834 15.19C50.5867 11.06 47.4367 7.70002 43.3067 7.70002H14.63C14.3967 6.67335 13.93 5.69335 13.2067 4.87669C12.04 3.64002 10.4067 2.91669 8.72669 2.91669H4.66669C3.71002 2.91669 2.91669 3.71002 2.91669 4.66669C2.91669 5.62335 3.71002 6.41669 4.66669 6.41669H8.72669C9.45002 6.41669 10.1267 6.72002 10.6167 7.23335C11.1067 7.77002 11.34 8.47002 11.2934 9.19335Z" fill="#EC6626"/>
<path d="M47.8566 20.4167H12.0633C11.0833 20.4167 10.29 21.1634 10.1966 22.12L9.35665 32.27C9.02998 36.26 12.1566 39.6667 16.1466 39.6667H42.0933C45.5933 39.6667 48.6733 36.7967 48.93 33.2967L49.7 22.4C49.7933 21.3267 48.9533 20.4167 47.8566 20.4167Z" fill="#EC6626"/>
</svg>
