<svg width="56" height="56" viewBox="0 0 56 56" fill="none" xmlns="http://www.w3.org/2000/svg">
<path d="M8.16666 11.8066V44.1933C8.16666 45.15 7.37333 45.9433 6.41666 45.9433C5.46 45.9433 4.66666 45.15 4.66666 44.1933V11.8066C4.66666 10.85 5.46 10.0566 6.41666 10.0566C7.37333 10.0566 8.16666 10.85 8.16666 11.8066Z" fill="#EC6626"/>
<path d="M51.3333 11.8066V44.1933C51.3333 45.15 50.54 45.9433 49.5833 45.9433C48.6267 45.9433 47.8333 45.15 47.8333 44.1933V11.8066C47.8333 10.85 48.6267 10.0566 49.5833 10.0566C50.54 10.0566 51.3333 10.85 51.3333 11.8066Z" fill="#EC6626"/>
<path d="M18.6667 49.5833H37.3333C41.2067 49.5833 44.3333 46.4566 44.3333 42.5833V13.4166C44.3333 9.54329 41.2067 6.41663 37.3333 6.41663H18.6667C14.7933 6.41663 11.6667 9.54329 11.6667 13.4166V42.5833C11.6667 46.4566 14.7933 49.5833 18.6667 49.5833Z" fill="#EC6626"/>
</svg>
