<svg width="56" height="56" viewBox="0 0 56 56" fill="none" xmlns="http://www.w3.org/2000/svg">
<path d="M47.1567 18.2467L29.19 28.6533C28.4667 29.0733 27.5567 29.0733 26.81 28.6533L8.84333 18.2467C7.56 17.5 7.23333 15.75 8.21333 14.6533C8.89 13.8833 9.66 13.2533 10.4767 12.81L23.1233 5.80999C25.83 4.29332 30.2167 4.29332 32.9233 5.80999L45.57 12.81C46.3867 13.2533 47.1567 13.9067 47.8333 14.6533C48.7667 15.75 48.44 17.5 47.1567 18.2467Z" fill="#EC6626"/>
<path d="M26.67 32.9933V48.9066C26.67 50.68 24.8733 51.8466 23.2867 51.0766C18.48 48.72 10.3833 44.31 10.3833 44.31C7.53666 42.7 5.20333 38.64 5.20333 35.3033V23.2633C5.20333 21.42 7.14 20.2533 8.72666 21.1633L25.5033 30.8933C26.2033 31.3366 26.67 32.13 26.67 32.9933Z" fill="#EC6626"/>
<path d="M29.33 32.9933V48.9066C29.33 50.68 31.1267 51.8466 32.7133 51.0766C37.52 48.72 45.6167 44.31 45.6167 44.31C48.4633 42.7 50.7967 38.64 50.7967 35.3033V23.2633C50.7967 21.42 48.86 20.2533 47.2733 21.1633L30.4967 30.8933C29.7967 31.3366 29.33 32.13 29.33 32.9933Z" fill="#EC6626"/>
</svg>
