<svg width="56" height="56" viewBox="0 0 56 56" fill="none" xmlns="http://www.w3.org/2000/svg">
<path d="M42.0467 28.77L39.2 25.9233C38.5233 25.34 38.1267 24.4766 38.1033 23.52C38.0567 22.47 38.4767 21.42 39.2467 20.65L42.0467 17.85C44.4733 15.4233 45.3833 13.09 44.6133 11.2466C43.8667 9.42663 41.5567 8.42329 38.15 8.42329H13.7667V6.41663C13.7667 5.45996 12.9733 4.66663 12.0167 4.66663C11.06 4.66663 10.2667 5.45996 10.2667 6.41663V49.5833C10.2667 50.54 11.06 51.3333 12.0167 51.3333C12.9733 51.3333 13.7667 50.54 13.7667 49.5833V38.1966H38.15C41.51 38.1966 43.7733 37.17 44.5433 35.3266C45.3133 33.4833 44.4267 31.1733 42.0467 28.77Z" fill="#EC6626"/>
</svg>
