<svg width="32" height="32" viewBox="0 0 32 32" fill="none" xmlns="http://www.w3.org/2000/svg">
<path d="M22.4003 12H17.0003V20.3333C17.0003 20.88 16.547 21.3333 16.0003 21.3333C15.4537 21.3333 15.0003 20.88 15.0003 20.3333V12H9.60032C5.33366 12 2.66699 14.6667 2.66699 18.9333V22.3867C2.66699 26.6667 5.33366 29.3333 9.60032 29.3333H22.387C26.6537 29.3333 29.3203 26.6667 29.3203 22.4V18.9333C29.3337 14.6667 26.667 12 22.4003 12Z" fill="#FD7513"/>
<path d="M17.0004 6.07992L19.7604 8.83992C19.9604 9.03992 20.2138 9.13326 20.4671 9.13326C20.7204 9.13326 20.9738 9.03992 21.1738 8.83992C21.5604 8.45326 21.5604 7.81326 21.1738 7.42659L16.7071 2.95992C16.3204 2.57326 15.6804 2.57326 15.2938 2.95992L10.8271 7.42659C10.4404 7.81326 10.4404 8.45326 10.8271 8.83992C11.2138 9.22659 11.8538 9.22659 12.2404 8.83992L15.0004 6.07992V11.9999H17.0004V6.07992Z" fill="#FD7513"/>
</svg>
