<svg width="56" height="56" viewBox="0 0 56 56" fill="none" xmlns="http://www.w3.org/2000/svg">
<path d="M28 4.66669C21.8867 4.66669 16.9167 9.63669 16.9167 15.75C16.9167 21.7467 21.6067 26.6 27.72 26.81C27.9067 26.7867 28.0933 26.7867 28.2333 26.81C28.28 26.81 28.3033 26.81 28.35 26.81C28.3733 26.81 28.3733 26.81 28.3967 26.81C34.37 26.6 39.06 21.7467 39.0833 15.75C39.0833 9.63669 34.1133 4.66669 28 4.66669Z" fill="#EC6626"/>
<path d="M39.8533 33.0167C33.3433 28.6767 22.7267 28.6767 16.17 33.0167C13.2067 35 11.5733 37.6833 11.5733 40.5533C11.5733 43.4233 13.2067 46.0833 16.1467 48.0433C19.4133 50.2367 23.7067 51.3333 28 51.3333C32.2933 51.3333 36.5867 50.2367 39.8533 48.0433C42.7933 46.06 44.4267 43.4 44.4267 40.5067C44.4033 37.6367 42.7933 34.9767 39.8533 33.0167Z" fill="#EC6626"/>
</svg>
